<?xml version="1.0" encoding="UTF-8"?>
<svg xmlns="http://www.w3.org/2000/svg" xmlns:xlink="http://www.w3.org/1999/xlink" version="1.1" viewBox="0 0 1133.9 1133.9">
  <!-- Generator: Adobe Illustrator 29.6.1, SVG Export Plug-In . SVG Version: 2.1.1 Build 9)  -->
  <defs>
    <style>
      .st0 {
        fill: #231f20;
      }

      .st1 {
        fill: url(#radial-gradient);
      }

      .st2 {
        fill: #fff;
      }

      .st3 {
        fill: url(#radial-gradient1);
      }

      .st4 {
        fill: url(#radial-gradient3);
      }

      .st5 {
        fill: url(#radial-gradient2);
      }

      .st6 {
        fill: url(#radial-gradient4);
      }

      .st7 {
        display: none;
      }
    </style>
    <radialGradient id="radial-gradient" cx="601.7" cy="711.6" fx="601.7" fy="711.6" r="209.1" gradientUnits="userSpaceOnUse">
      <stop offset="0" stop-color="#f26522"/>
      <stop offset="1" stop-color="#d81f28"/>
    </radialGradient>
    <radialGradient id="radial-gradient1" cx="827.2" cy="453.7" fx="827.2" fy="453.7" r="244" xlink:href="#radial-gradient"/>
    <radialGradient id="radial-gradient2" cx="282.9" cy="716.2" fx="282.9" fy="716.2" r="227.2" xlink:href="#radial-gradient"/>
    <radialGradient id="radial-gradient3" cx="504.3" cy="367.5" fx="504.3" fy="367.5" r="279.1" xlink:href="#radial-gradient"/>
    <radialGradient id="radial-gradient4" cx="653.9" cy="655.6" fx="653.9" fy="655.6" r="12.3" xlink:href="#radial-gradient"/>
  </defs>
  <g id="Black_copy" class="st7">
    <path class="st2" d="M778.7,804.3c-6.4,7.1-11.2,13.9-17.4,19-6.2,5-13.4,9.5-20.8,12.1-10.3,3.6-19.5-2.6-21.2-13.5-1.3-8.2-1.3-16.6-1.9-24.3-11.7,10.8-23.4,22.5-36,32.8-4.8,3.9-11.8,6.1-18.1,7.2-10.2,1.7-17.1-5.2-17-15.5,0-7.2.3-14.3.4-21.5,0-.1-.3-.3-1.1-1-5.2,5.7-10,12-15.9,17.1-7.6,6.6-15.4,13.2-24.2,17.9-19.2,10.3-29.1-.5-30.3-19.3-.3-4.9,0-9.9,0-17.2-3.3,3.8-5.4,6.2-7.5,8.7-9.5,11.2-19.1,22-32.9,28.3-17.9,8.1-31.6-.6-32.7-20.1-1-18.4,7-33.5,15.6-48.6,11.5-20.2,23-40.4,34.1-60.8,3.7-6.8,6-14.3,9-21.5-.6-.7-1.3-1.4-1.9-2.1-3.6.9-7.9.9-10.7,3-7.4,5.6-15.2,11.2-21.1,18.2-26.2,31.6-44.9,68-63.7,104.2-3.6,7-7.5,13.9-11.1,21-2.4,4.7-5.9,7-11.2,6.8-6.6-.2-13.3,0-21.2,0,5.1-9.9,9.7-18.7,15.2-29.5-12,5.2-22.7,8.3-32.3-1.6-8.3,7.4-16.2,14.5-24.3,21.4-8.5,7.2-17.8,13.6-29.6,8.5-12.4-5.4-14.3-17.1-14.3-28.7,0-7.8,1.4-15.8,3.5-23.4,10.1-36.2,29.5-66.7,57.8-91.5,7.6-6.6,16.1-11.4,26.4-12.6,11.4-1.3,18.2,4,19.1,15.3,1.6,19.2-1.8,37.5-10.1,54.8-6.8,14-14.3,27.6-21.1,41.6-1.6,3.3-3.3,9.6-2,10.6,3.1,2.3,8.1,3.5,12.1,3,11.3-1.5,19.6-8.3,25.1-17.9,8.8-15.4,17.1-31.2,25.4-46.9,8.8-16.6,17.7-33.2,26.1-50,3.5-7.1,8.3-10.5,16.4-9.8,5.6.5,11.4.1,18,.1-2,5-3.8,9.5-5.7,14.2,8.3-5.1,15.6-10.6,23.7-14.6,14-6.9,26,.5,25.4,16.1-.4,9.1-2.2,18.9-6.1,26.9-15.4,31.2-32.1,61.8-47.8,92.9-2.3,4.6-4.5,12.8-2.2,15.5,4.5,5.4,11-.1,15.9-2.6,15.4-7.9,26.9-20.5,36-34.7,9.7-15.1,18.1-31.1,26.5-47.1,9.9-19.1,19.3-38.5,28.6-57.9,3-6.3,7.1-9.6,14.4-9,6.4.5,12.8.1,20.9.1-3.5,6.8-6.4,12.6-9.4,18.4-17.2,32.6-34.5,65.1-51.4,97.8-3.8,7.4-6.9,15.4-9.2,23.4-1.1,3.8.4,8.4.8,12.6,3.9-.7,8.1-.5,11.5-2.1,23.4-11.6,38.7-31.4,50.7-53.7,19.3-35.6,37.8-71.7,56.6-107.6.6-1.1.9-2.2,1.6-3.9-5.2-3-13.8,1.7-16.7-7.9,4.1,0,7.8-.5,11.3.1,7.1,1.2,11.2-1.9,14.2-7.9,8.9-17.7,18.2-35.1,26.8-52.9,3.6-7.4,8.4-11,16.8-10.1,5.9.6,11.9.1,19.3.1-12.6,23.6-24.7,46.3-36.8,69,3.6,1.4,6.8,2.7,10.5,4.1-1.4,1.8-1.7,2.4-2,2.4-11.9-1.1-16.6,6.6-21.3,15.8-22.8,44.9-46.2,89.6-69,134.6-3.1,6.1-4.5,13-6.7,19.6.9.7,1.8,1.5,2.6,2.2,5.3-2.1,11.6-3.1,15.7-6.6,10.7-9,21.8-18.1,30.4-29,9.4-12,16.8-25.7,23.9-39.3,13.5-26.3,29-50.8,53.8-68,6.3-4.3,12.9-8.5,19.9-11.5,14.1-6,19-4.1,26.6,8.5,8.9-14,22.9-5.4,36.2-8.9-6.6,12.4-12.4,23.2-18.1,34-15.8,29.9-31.8,59.8-47.4,89.8-4.8,9.1-8.3,18.8-8.4,30.6,3.6-.9,6.5-1.3,9.1-2.3,16.5-6.6,28.5-18.7,38.6-32.7,6.8-9.4,12.5-19.6,19.1-29.1,1.7-2.5,4.9-3.9,8.3-4.9-13.6,26.6-28.7,51.8-54,68.7-2.6,1.8-5.6,3.3-8.6,4.4-12.7,4.3-26.9.8-26-16.5.3-4.8-.8-9.7-1.4-15.6ZM732,827.8c.7.7,1.3,1.4,2,2.1,4.4-1.1,9.1-1.6,13.2-3.5,12.9-5.9,21.7-16.2,28.2-28.5,15-28.7,30-57.4,44.5-86.2,2.7-5.4,4.8-11.8,4.7-17.6,0-4.4-3.6-9.2-6.8-12.8-.7-.8-7.3,1.8-9.5,4.3-33,37.3-58.3,79-73,126.8-1.6,5-2.1,10.4-3.1,15.6ZM351.1,819.1c1,9.5,3.1,11.1,11.6,8.3,11.5-3.8,19.7-11.9,27.2-20.9,5.4-6.5,8.3-13,8.5-21.9.3-18.6,8.3-33.8,24.3-44.3,2.4-1.6,5.7-3.5,6.3-5.8,3.7-14,8.1-28,5.7-42.8-1-6.4-4.6-7.9-9.9-4-3.7,2.8-7.1,6.2-10,9.8-22.8,28-41.4,58.5-55.1,91.9-3.9,9.5-5.8,19.8-8.6,29.7Z"/>
    <path class="st2" d="M1113.8,558.9c-1.4,2.4-2.6,4.9-4.2,7.3-21.8,33-53.6,49.8-91.6,55.8-45.6,7.2-88.5-4.1-130-21.7-25.2-10.7-49.9-22.7-74.7-34.5-27.5-13-56.4-20.9-86.4-25.2-6.3-.9-8.9,3.1-11.9,7-21.9,28.4-46.7,53.9-75.6,75.2-14.7,10.8-30.1,19.7-48.7,22.4-18.7,2.8-37.4-6.1-46.2-22.7-4.8-9.1-4.9-18.5-1.1-27.9,5.8-14.2,15.9-24.5,29.1-31.6,36-19.5,74.4-30.6,115.5-31.6,28-.6,27.9-.6,44.1-23.2,4.5-6.3,7.5-12.6,8.8-20.5.9-5.1,6-9.7,9.6-14.1,3-3.7,7.4-6.5,9.7-10.6,8.3-14.3,16.1-29,24-43.5.2-.4,0-.9,0-.8-8,5.6-15.5,13.9-24.7,16.6-14.3,4.2-21.3,13.6-28.4,25.4-21.1,34.9-52.7,55.6-92.4,64.1-13,2.8-26.1,2.2-38.8-2.3-31.4-11-46.2-44.2-32.8-74.6,11.9-27,32.6-43,62-47.1,16.8-2.3,36.2,7.7,42.3,21.7,6,13.8.2,33.8-12.6,45.2-10.4,9.3-22.2,15.4-36.1,17.1-8.9,1.1-16.9-.7-24.4-5,.1-.9.2-1.9.3-2.8,2.7.3,5.5,0,8.1.9,25.9,8.2,57.8-12.2,61-39.1,1.7-14-4.4-24.2-17.7-29-11.8-4.3-23.7-4.3-35.6-.2-30,10.3-48.5,38.2-45.4,68.6,2.1,20.7,19.2,38,40.6,41.5,17.4,2.9,32.9-1.4,47-11.3,24.5-17.1,41.6-40.6,57.4-66.1-1.9-1.3-3.3-2.6-4.9-3.4-30.7-14.9-35.2-45-25-71.3,4.1-10.7,11.5-20.8,19.3-29.5,16.1-17.9,36.7-30.1,58.3-40.3,24.6-11.5,49.4-22.5,74.2-33.7,2.6-1.2,5.5-1.7,8.2-2.5l1.1,1.5c-1.6,1.8-3,4-5,5.3-39,25-64,60.4-77,104.5-5.9,20.1-11.3,40.4-17.4,62.4,6.2-2.8,11.5-4.5,15.9-7.4,20.1-13.7,35.1-31.1,38.7-56.3.8-5.6.8-12.3,3.9-16.3,3.4-4.4,10.1-6.3,15.3-9.3.6,3,2.5,6.5,1.7,8.9-3.1,9.1-6.7,18.1-11,26.7-4.4,8.7-5,17-2.4,26.4,3.8,13.5,6.8,27.3,9.1,41.1,2.8,16.5.2,32.5-7.6,48.2,2.1-1.3,4.3-2.6,6.3-4,14.1-10.3,24.4-23.7,32.1-39.3,23.7-48.1,47.7-96,71.2-144.2,3.9-7.9,8.3-12.4,17.5-10.7,3.8.7,7.7.1,12.9.1-4.7,9.4-8.6,17.8-12.9,26-25.2,49-50.6,97.9-75.6,147-4.7,9.2-8,19.1-11.6,28.8-.8,2.3-.1,5.1-.1,7.6,2.5-.6,5.7-.4,7.5-1.8,8.9-6.9,19-13.1,25.9-21.7,9-11.3,16.3-24.2,22.8-37.1,10.6-20.9,21.8-41.2,40.4-56.2,6.1-4.9,12.9-9.3,19.8-13.1,11.4-6.2,15.2-5,22.7,6.2,7.5-10.7,18.4-5,29-6.7-2.3,5-4,9-5.9,12.9-15.5,30.7-31.2,61.2-46.5,92-3.9,7.8-8,15.8-7.2,26.4,3.4-.9,6.2-1.3,8.7-2.4,12.7-5.6,21.7-15.5,29.5-26.5,5.6-7.9,10.1-16.4,15.4-24.5,1.5-2.3,4.1-4,7.2-5-8.4,19.5-18.9,37.3-34.9,51.1-4.8,4.1-10.2,7.8-15.9,10.5-11.7,5.5-19.9.7-21.5-12.2-.5-4.3,0-8.6,0-14.7-5.9,6.3-10.2,11.4-15.1,15.8-4,3.7-8.2,7.3-13,9.7-10.3,5.2-19.5.4-21.5-11.1-1.1-6.5-1.2-13.1-1.9-20.8-5.4,6.5-10,12.4-15,18-7,7.9-15.3,14-25.9,16.3-9.6,2.1-15.7-1.6-16.7-11.3-.6-6.3-.1-12.7-.1-20.5-5.4,4.8-9.9,8.8-14.4,12.8-14.7,12.9-31.2,21.7-51.2,22.5-10.7.4-20.8-1-28.6-10.5-4.9,8.3-9.3,15.9-14.3,24.4,56.7,4.3,104.5,32,154.3,53.5,26.9,11.6,53.7,23.7,83.1,27.8,46.5,6.5,90,.4,126.5-32,7.5-6.6,13.6-14.8,20.4-22.2.4.2.8.5,1.2.7ZM708.3,540.3c-13.9,0-26.5-.9-38.9.2-33,2.9-65,10-94.1,26.5-8.8,5-17.4,11.9-23.3,20-15.3,21-4.3,46.5,21.3,51.5,16.3,3.2,31-1.5,44-11,12.4-9,24.3-18.7,36-28.6,20.3-17.1,37.9-36.8,54.9-58.6ZM814,278.9c-1.1.4-2.1.8-3.2,1.3-21.5,10.5-43.7,19.9-64.3,31.9-15,8.7-29,19.8-41.6,31.8-15.4,14.6-22.2,33.6-19.9,55.2,1.8,16.8,10.8,28.1,25.9,35.1,5.6,2.6,8.6,1.3,11.6-4.4,15.7-30.2,31.8-60.2,48-90.2,11.8-22,25.3-42.8,43.5-60.6ZM906.8,508.2c3.7-.9,5.1-1.1,6.5-1.6,14.8-5.2,23.7-16.9,30.5-29.9,11.9-22.7,23-45.9,34.2-69,2-4.2,4-8.9,4-13.3,0-4.2-2.4-8.5-3.7-12.8-3.4,1.6-6.9,3-10.1,4.9-1.4.8-2.4,2.5-3.5,3.8-22.9,28.9-40.1,60.9-52.5,95.6-2.3,6.6-3.3,13.7-5.3,22.2ZM796.3,412.5c-.7.3-1.3.4-1.5.7-10.4,18.8-20.9,37.5-31.1,56.4-1,1.8-1.2,4.3-.8,6.3,1.8,9.3.4,12.1-8.8,15.3-5.6,2-7.1,5.6-5,11,3,7.7,11.7,11.6,21.1,9.3,12.9-3.1,21.6-13,23.5-27.4,1.2-8.8,2.3-17.7,2.5-26.6.4-15,.1-29.9.1-45.1Z"/>
    <path class="st2" d="M279.7,744c25.8,23,27.1,49.7,16,77.8-19.9,50.3-72.3,82.7-126.2,78.7-14-1-27.9-4.7-41.9-5.4-11.4-.5-23.1,1.1-34.5,2.7-21.7,3-42.9,2.6-63.3-6.4-11.6-5.1-13-14.1-3.7-22.4,7.8-6.9,17.3-9.4,27-7.1,18.5,4.3,36.7,9.5,54.9,15,8.2,2.5,15,.8,21.6-3.9,19.7-14.4,35.7-32.3,47.8-53.3,21.9-38.1,43.4-76.6,64.4-115.2,24.5-44.9,51.7-87.9,84.9-126.9,2.7-3.2,5.2-6.5,8.2-10.3-28.5-31.2-64.2-27.3-100.8-22.1.7,1.6,1,3,1.9,4,13,14.4,18.2,31.5,18,50.5-.7,59.7-25.6,107.8-70.4,146.3-11.4,9.8-24.8,14.3-40.1,15.4-11.4.8-23.1,3.5-33.6,7.9-42.1,17.9-67.6-9.4-73.3-44-5.5-33.5,4.2-64.2,17.8-94,21.9-47.8,58-79.9,108.3-96,13.6-4.3,27.2-5.2,41-1.8,15.6,3.9,31.3,4.3,47.1,2,31.6-4.6,61.1.8,87.9,18.6,1.9,1.2,3.8,2.3,6,3.7,4.8-3.4,9.4-7,14.4-10.2,11.1-7.2,23.1-12.2,36.4-13.7,19.7-2.1,34,5.9,43.8,22.6,5.2,8.9,10.4,17.9,15.8,27.1,28.5-15.9,58.9-19.6,90.6-15.6-13.9,2.6-28,4.5-41.7,8-13.6,3.5-26.8,8.5-40.1,12.9-4.3,1.4-5.3,3.5-3.8,8.3,3.4,11,4.5,22.1-1.1,33.1-3.9,7.5-11.2,12.4-17.6,10.8-6.7-1.6-11.4-9.7-10.5-18.4,1.3-12.3,6-23.1,15.3-31.2,3.7-3.3,4.3-6.4,2.1-10.2-5-8.7-9.6-17.9-15.7-25.9-9.5-12.4-23.6-14.9-38.2-13.6-16.9,1.5-30.6,10.1-43.5,21.4,28.2,33.6,35.7,70.4,18.3,110.9-16.8,39.2-46.3,62.6-89.7,69.6ZM131.4,754.6c23.1,1.6,41.2-5.8,55.6-19.6,39.7-37.9,62.2-83.9,60.6-139.8-.5-15.4-4.5-29.8-16.3-41-4.7-4.4-9.8-6.3-16.3-4-32.6,11.6-61.3,29.2-82.4,57.2-20.7,27.5-34.3,58-34.8,92.9-.3,17.3,4.1,34,17.9,46.4,6.4,5.8,10.5,5.6,16.7-.5,16.5-16.3,29-35,35-57.7,3.1-11.9,6-23.9,9.1-35.9.9-3.3,2.4-6.5,3.6-9.8.8.4,1.7.7,2.5,1.1-3.6,42.2-18.4,79.5-51.3,110.8ZM117.9,756.8c-1-1.2-1.6-2.3-2.5-3.1-20.6-18.8-26.9-42.6-21.7-68.9,12.4-63.2,46.4-109.9,106.8-135.5,4.2-1.8,8.4-3.5,14.1-6-3.8-1.3-6-2.3-8.3-2.9-18.5-4.5-36.3-1.8-53.7,5-49.6,19.4-80.4,56.8-99.8,104.9-10.4,25.8-14.6,52.4-8.6,79.9,3.8,17.6,13.6,30.8,31.4,36.3,15.7,4.9,29.7.8,42.3-9.7ZM340.9,575.4c-32.5,26.2-81.2,118.3-85.4,161.5,29.7-1.7,53-15.8,70-38.2,28.3-37.3,32.7-78.8,15.4-123.3ZM139.4,887.2c25.8,8.4,51.8,9.6,76.1-6.4,30-19.7,49.4-47.5,58.9-81.9,2.8-10.3,2.9-21.5,2.9-32.3,0-12-6.9-19.4-17.3-20.6-5.1-.6-8.9,1.4-10.2,6.8-9.8,40.7-29.6,75.5-62.4,101.9-14.9,12-31.8,21.6-48,32.4ZM101.7,887.4c0-.7.2-1.4.2-2.2-16.8-4.4-33.5-9.2-50.5-13-5.6-1.2-11.8,0-17.6.8-6.5,1-8.1,6.8-3.4,11.2,1.9,1.8,4.5,3.3,6.9,3.7,8.9,1.7,17.9,3.4,27,4.3,12.8,1.3,25.6,1.3,37.4-4.9ZM452.6,596c-11,7.3-17.2,16.8-18.3,29.4-.5,5.2,1.4,10.1,7,11.6,5.5,1.4,8.6-2.2,10.5-7,4.2-11,4.3-22.1.8-33.9Z"/>
    <path class="st2" d="M268.4,492.8c19.9,4,39.2,8.3,58.6,11.7,12.5,2.1,23.9-2.3,34.4-9,23.5-15,39.9-35.9,51.4-61,10.7-23.3,25.5-43.6,46.5-58.7,5.4-3.9,11.1-7.6,17.1-10.4,13-6.2,17.6-4.6,24.7,7.7,8.4-11.8,20.6-6.2,32.9-7.9-6.1,11.9-11.6,22.5-17,33.1-14.2,27.7-28.6,55.3-42.6,83.2-3,5.9-4.9,12.4-6.8,18.8-.6,2-.4,5.6.9,6.5,1.4,1,4.7.5,6.8-.4,12.2-5.5,22.4-13.7,30.4-24.3,31.7-42,52-89,61.6-140.7.4-2.1,0-4.4,0-6.1-11.1,2.1-22.1,5.4-33.2,6.1-24.3,1.5-48.7-15.6-54.4-36.7-4-15,2.7-31.8,16-39.9,18.3-11.2,41.2-9,57,5.6,13.3,12.4,20,28,22.3,45.7.2,1.2.3,2.3.7,4.5,6.3-4.3,11.9-8.2,17.5-12.1,23.7-16.7,47.1-33.8,71.1-50,37.8-25.5,79.5-39.7,125.3-40.6,24.6-.5,48.2,4.5,70.2,15.9,2.8,1.4,5.4,3.2,9.8,5.9-14-4.3-25.7-8.8-37.9-11.4-40.9-8.8-80.1-1.9-118.2,14-25.9,10.8-49.7,25.5-72.6,41.6-17.2,12.1-34.3,24.4-51.7,36.2-8.5,5.8-14,13.3-15.2,23.5-3.2,27.7-12.9,53.3-26,77.5-11.6,21.5-24.3,42.5-37.2,63.3-7.4,12-18.1,20.8-31.1,26.7-15,6.8-25,.7-25.4-15.8,0-4,0-7.9,0-13.7-2.6,3.1-4.1,5.4-6.2,7.1-8.5,7.1-16.6,14.8-25.9,20.6-10.2,6.4-19.1,2.5-22.3-9.1-1.5-5.6-1.2-11.7-1.3-17.5,0-3.9.7-7.8,1.2-14.2-3,3.2-4.5,4.8-6,6.4-18.4,20.2-39.8,35.7-67.4,40.6-16.9,3-33.5.8-49.8-4.2-2.1-.7-4.2-1.3-6.3-2.1-14-5.5-27.5-6.2-42.3-.5-20.8,8-42.8,10.1-64.9,4.6-5.7-1.4-11.3-3.8-16.3-6.9-10.6-6.6-10.8-18.4-.4-25.6,14.3-9.9,30.5-11.1,47-8.2,16.8,2.9,33.3,7,50.1,9.9,3.6.6,9.2-.5,11.3-3,12.1-13.9,23.4-28.5,35.9-44.1-13.9-.8-25.7-1.2-37.3-2.3-34.5-3.3-62.3-28.2-68.8-62.1-3.5-18,.5-34.9,10.4-50.3,22.1-34.5,54-54.3,94-61.4,25.6-4.6,50.7-1.9,75.6,5.3,13.3,3.8,13.2,2.9,22.7-7.1,7.5-7.9,16.2-15.5,25.9-20.4,16.7-8.5,31.7.2,35.3,18.7,3.5,17.5,0,34-7.1,49.8-19.8,44.2-50.4,79.1-91.9,104.1-13.5,8.1-24.2,18.4-32,32.2-9.9,17.6-24.5,31-40.8,42.6-2.4,1.7-4.8,3.5-7.2,5.3-.3.3-.4.8-1.3,2.7ZM374.4,273.6c-28-9-56-13.2-84.6-8.2-38.4,6.8-69.6,24.9-90.1,59.1-21.6,36.1-8.1,78.4,30.1,95.8,16.9,7.7,34.7,9.2,53,8.5,8.4-.3,13.4-3.1,17.3-10.9,19.5-39.4,39.5-78.6,59.5-117.8,4.6-9,9.8-17.6,14.8-26.6ZM381.9,274.1c-30.5,42.5-33.5,91.9-48.2,138.4,2-.6,2.5-.6,2.9-.8,1.1-.5,2.2-1.1,3.3-1.7,41.1-23.1,71.9-56.2,93.6-97.9,8.3-15.9,12-32.8,10.8-50.8-1.2-18.1-13.4-26.2-30.1-19-13.3,5.7-21.5,16.8-29.9,28.4,6.5,3.6,12.7,6.7,18.4,10.5,11.5,7.4,13.1,9.6,12,14-10.6-6.8-21.5-13.7-32.9-21ZM519.7,262.3c-17.6,0-31.6,9-36.1,23.2-4.6,14.6,1.8,30.6,16.1,40.6,21.3,14.9,42.8,12.4,64.3.8,1.9-1,3.6-4.7,3.5-7.1-.6-12.8-3.9-24.9-11.2-35.6-8.8-12.8-20-21.8-36.6-21.9ZM410.3,500.3c.2,5.4,2.2,7.7,7.2,6,3.7-1.2,8.2-2.1,10.6-4.8,9.3-10.5,19.6-20.7,26.5-32.7,13.1-22.9,24.2-47,35.7-70.8,2.7-5.5,4.8-11.7,5.1-17.6.2-4-2.9-8.7-5.8-11.8-.9-1-6.4,1.7-9.3,3.4-2,1.2-3.4,3.5-5,5.4-23.2,27.2-40.4,58-53.7,90.9-4.3,10.5-7.5,21.3-11.2,32ZM233.6,496.9c0-.7,0-1.5-.1-2.2-19.1-4.6-38.1-9.5-57.3-13.5-5.1-1.1-10.9-.4-16.2.7-6.8,1.4-14.9,2.3-15.8,11.7-.5,5.3,6.9,12.2,15.7,13.6,11.7,1.8,23.5,3.5,35.3,3.1,13.9-.4,26.9-5,38.3-13.4Z"/>
    <path class="st2" d="M641.8,655.5c0-7.4,5.5-12.7,12.6-12.5,5.9.2,11.8,6.8,11.6,13.2-.2,6.6-6,12-12.7,11.9-6.9-.1-11.5-5.2-11.4-12.6Z"/>
  </g>
  <g id="Black" class="st7">
    <path class="st0" d="M778.7,804.3c-6.4,7.1-11.2,13.9-17.4,19-6.2,5-13.4,9.5-20.8,12.1-10.3,3.6-19.5-2.6-21.2-13.5-1.3-8.2-1.3-16.6-1.9-24.3-11.7,10.8-23.4,22.5-36,32.8-4.8,3.9-11.8,6.1-18.1,7.2-10.2,1.7-17.1-5.2-17-15.5,0-7.2.3-14.3.4-21.5,0-.1-.3-.3-1.1-1-5.2,5.7-10,12-15.9,17.1-7.6,6.6-15.4,13.2-24.2,17.9-19.2,10.3-29.1-.5-30.3-19.3-.3-4.9,0-9.9,0-17.2-3.3,3.8-5.4,6.2-7.5,8.7-9.5,11.2-19.1,22-32.9,28.3-17.9,8.1-31.6-.6-32.7-20.1-1-18.4,7-33.5,15.6-48.6,11.5-20.2,23-40.4,34.1-60.8,3.7-6.8,6-14.3,9-21.5-.6-.7-1.3-1.4-1.9-2.1-3.6.9-7.9.9-10.7,3-7.4,5.6-15.2,11.2-21.1,18.2-26.2,31.6-44.9,68-63.7,104.2-3.6,7-7.5,13.9-11.1,21-2.4,4.7-5.9,7-11.2,6.8-6.6-.2-13.3,0-21.2,0,5.1-9.9,9.7-18.7,15.2-29.5-12,5.2-22.7,8.3-32.3-1.6-8.3,7.4-16.2,14.5-24.3,21.4-8.5,7.2-17.8,13.6-29.6,8.5-12.4-5.4-14.3-17.1-14.3-28.7,0-7.8,1.4-15.8,3.5-23.4,10.1-36.2,29.5-66.7,57.8-91.5,7.6-6.6,16.1-11.4,26.4-12.6,11.4-1.3,18.2,4,19.1,15.3,1.6,19.2-1.8,37.5-10.1,54.8-6.8,14-14.3,27.6-21.1,41.6-1.6,3.3-3.3,9.6-2,10.6,3.1,2.3,8.1,3.5,12.1,3,11.3-1.5,19.6-8.3,25.1-17.9,8.8-15.4,17.1-31.2,25.4-46.9,8.8-16.6,17.7-33.2,26.1-50,3.5-7.1,8.3-10.5,16.4-9.8,5.6.5,11.4.1,18,.1-2,5-3.8,9.5-5.7,14.2,8.3-5.1,15.6-10.6,23.7-14.6,14-6.9,26,.5,25.4,16.1-.4,9.1-2.2,18.9-6.1,26.9-15.4,31.2-32.1,61.8-47.8,92.9-2.3,4.6-4.5,12.8-2.2,15.5,4.5,5.4,11-.1,15.9-2.6,15.4-7.9,26.9-20.5,36-34.7,9.7-15.1,18.1-31.1,26.5-47.1,9.9-19.1,19.3-38.5,28.6-57.9,3-6.3,7.1-9.6,14.4-9,6.4.5,12.8.1,20.9.1-3.5,6.8-6.4,12.6-9.4,18.4-17.2,32.6-34.5,65.1-51.4,97.8-3.8,7.4-6.9,15.4-9.2,23.4-1.1,3.8.4,8.4.8,12.6,3.9-.7,8.1-.5,11.5-2.1,23.4-11.6,38.7-31.4,50.7-53.7,19.3-35.6,37.8-71.7,56.6-107.6.6-1.1.9-2.2,1.6-3.9-5.2-3-13.8,1.7-16.7-7.9,4.1,0,7.8-.5,11.3.1,7.1,1.2,11.2-1.9,14.2-7.9,8.9-17.7,18.2-35.1,26.8-52.9,3.6-7.4,8.4-11,16.8-10.1,5.9.6,11.9.1,19.3.1-12.6,23.6-24.7,46.3-36.8,69,3.6,1.4,6.8,2.7,10.5,4.1-1.4,1.8-1.7,2.4-2,2.4-11.9-1.1-16.6,6.6-21.3,15.8-22.8,44.9-46.2,89.6-69,134.6-3.1,6.1-4.5,13-6.7,19.6.9.7,1.8,1.5,2.6,2.2,5.3-2.1,11.6-3.1,15.7-6.6,10.7-9,21.8-18.1,30.4-29,9.4-12,16.8-25.7,23.9-39.3,13.5-26.3,29-50.8,53.8-68,6.3-4.3,12.9-8.5,19.9-11.5,14.1-6,19-4.1,26.6,8.5,8.9-14,22.9-5.4,36.2-8.9-6.6,12.4-12.4,23.2-18.1,34-15.8,29.9-31.8,59.8-47.4,89.8-4.8,9.1-8.3,18.8-8.4,30.6,3.6-.9,6.5-1.3,9.1-2.3,16.5-6.6,28.5-18.7,38.6-32.7,6.8-9.4,12.5-19.6,19.1-29.1,1.7-2.5,4.9-3.9,8.3-4.9-13.6,26.6-28.7,51.8-54,68.7-2.6,1.8-5.6,3.3-8.6,4.4-12.7,4.3-26.9.8-26-16.5.3-4.8-.8-9.7-1.4-15.6ZM732,827.8c.7.7,1.3,1.4,2,2.1,4.4-1.1,9.1-1.6,13.2-3.5,12.9-5.9,21.7-16.2,28.2-28.5,15-28.7,30-57.4,44.5-86.2,2.7-5.4,4.8-11.8,4.7-17.6,0-4.4-3.6-9.2-6.8-12.8-.7-.8-7.3,1.8-9.5,4.3-33,37.3-58.3,79-73,126.8-1.6,5-2.1,10.4-3.1,15.6ZM351.1,819.1c1,9.5,3.1,11.1,11.6,8.3,11.5-3.8,19.7-11.9,27.2-20.9,5.4-6.5,8.3-13,8.5-21.9.3-18.6,8.3-33.8,24.3-44.3,2.4-1.6,5.7-3.5,6.3-5.8,3.7-14,8.1-28,5.7-42.8-1-6.4-4.6-7.9-9.9-4-3.7,2.8-7.1,6.2-10,9.8-22.8,28-41.4,58.5-55.1,91.9-3.9,9.5-5.8,19.8-8.6,29.7Z"/>
    <path class="st0" d="M1113.8,558.9c-1.4,2.4-2.6,4.9-4.2,7.3-21.8,33-53.6,49.8-91.6,55.8-45.6,7.2-88.5-4.1-130-21.7-25.2-10.7-49.9-22.7-74.7-34.5-27.5-13-56.4-20.9-86.4-25.2-6.3-.9-8.9,3.1-11.9,7-21.9,28.4-46.7,53.9-75.6,75.2-14.7,10.8-30.1,19.7-48.7,22.4-18.7,2.8-37.4-6.1-46.2-22.7-4.8-9.1-4.9-18.5-1.1-27.9,5.8-14.2,15.9-24.5,29.1-31.6,36-19.5,74.4-30.6,115.5-31.6,28-.6,27.9-.6,44.1-23.2,4.5-6.3,7.5-12.6,8.8-20.5.9-5.1,6-9.7,9.6-14.1,3-3.7,7.4-6.5,9.7-10.6,8.3-14.3,16.1-29,24-43.5.2-.4,0-.9,0-.8-8,5.6-15.5,13.9-24.7,16.6-14.3,4.2-21.3,13.6-28.4,25.4-21.1,34.9-52.7,55.6-92.4,64.1-13,2.8-26.1,2.2-38.8-2.3-31.4-11-46.2-44.2-32.8-74.6,11.9-27,32.6-43,62-47.1,16.8-2.3,36.2,7.7,42.3,21.7,6,13.8.2,33.8-12.6,45.2-10.4,9.3-22.2,15.4-36.1,17.1-8.9,1.1-16.9-.7-24.4-5,.1-.9.2-1.9.3-2.8,2.7.3,5.5,0,8.1.9,25.9,8.2,57.8-12.2,61-39.1,1.7-14-4.4-24.2-17.7-29-11.8-4.3-23.7-4.3-35.6-.2-30,10.3-48.5,38.2-45.4,68.6,2.1,20.7,19.2,38,40.6,41.5,17.4,2.9,32.9-1.4,47-11.3,24.5-17.1,41.6-40.6,57.4-66.1-1.9-1.3-3.3-2.6-4.9-3.4-30.7-14.9-35.2-45-25-71.3,4.1-10.7,11.5-20.8,19.3-29.5,16.1-17.9,36.7-30.1,58.3-40.3,24.6-11.5,49.4-22.5,74.2-33.7,2.6-1.2,5.5-1.7,8.2-2.5l1.1,1.5c-1.6,1.8-3,4-5,5.3-39,25-64,60.4-77,104.5-5.9,20.1-11.3,40.4-17.4,62.4,6.2-2.8,11.5-4.5,15.9-7.4,20.1-13.7,35.1-31.1,38.7-56.3.8-5.6.8-12.3,3.9-16.3,3.4-4.4,10.1-6.3,15.3-9.3.6,3,2.5,6.5,1.7,8.9-3.1,9.1-6.7,18.1-11,26.7-4.4,8.7-5,17-2.4,26.4,3.8,13.5,6.8,27.3,9.1,41.1,2.8,16.5.2,32.5-7.6,48.2,2.1-1.3,4.3-2.6,6.3-4,14.1-10.3,24.4-23.7,32.1-39.3,23.7-48.1,47.7-96,71.2-144.2,3.9-7.9,8.3-12.4,17.5-10.7,3.8.7,7.7.1,12.9.1-4.7,9.4-8.6,17.8-12.9,26-25.2,49-50.6,97.9-75.6,147-4.7,9.2-8,19.1-11.6,28.8-.8,2.3-.1,5.1-.1,7.6,2.5-.6,5.7-.4,7.5-1.8,8.9-6.9,19-13.1,25.9-21.7,9-11.3,16.3-24.2,22.8-37.1,10.6-20.9,21.8-41.2,40.4-56.2,6.1-4.9,12.9-9.3,19.8-13.1,11.4-6.2,15.2-5,22.7,6.2,7.5-10.7,18.4-5,29-6.7-2.3,5-4,9-5.9,12.9-15.5,30.7-31.2,61.2-46.5,92-3.9,7.8-8,15.8-7.2,26.4,3.4-.9,6.2-1.3,8.7-2.4,12.7-5.6,21.7-15.5,29.5-26.5,5.6-7.9,10.1-16.4,15.4-24.5,1.5-2.3,4.1-4,7.2-5-8.4,19.5-18.9,37.3-34.9,51.1-4.8,4.1-10.2,7.8-15.9,10.5-11.7,5.5-19.9.7-21.5-12.2-.5-4.3,0-8.6,0-14.7-5.9,6.3-10.2,11.4-15.1,15.8-4,3.7-8.2,7.3-13,9.7-10.3,5.2-19.5.4-21.5-11.1-1.1-6.5-1.2-13.1-1.9-20.8-5.4,6.5-10,12.4-15,18-7,7.9-15.3,14-25.9,16.3-9.6,2.1-15.7-1.6-16.7-11.3-.6-6.3-.1-12.7-.1-20.5-5.4,4.8-9.9,8.8-14.4,12.8-14.7,12.9-31.2,21.7-51.2,22.5-10.7.4-20.8-1-28.6-10.5-4.9,8.3-9.3,15.9-14.3,24.4,56.7,4.3,104.5,32,154.3,53.5,26.9,11.6,53.7,23.7,83.1,27.8,46.5,6.5,90,.4,126.5-32,7.5-6.6,13.6-14.8,20.4-22.2.4.2.8.5,1.2.7ZM708.3,540.3c-13.9,0-26.5-.9-38.9.2-33,2.9-65,10-94.1,26.5-8.8,5-17.4,11.9-23.3,20-15.3,21-4.3,46.5,21.3,51.5,16.3,3.2,31-1.5,44-11,12.4-9,24.3-18.7,36-28.6,20.3-17.1,37.9-36.8,54.9-58.6ZM814,278.9c-1.1.4-2.1.8-3.2,1.3-21.5,10.5-43.7,19.9-64.3,31.9-15,8.7-29,19.8-41.6,31.8-15.4,14.6-22.2,33.6-19.9,55.2,1.8,16.8,10.8,28.1,25.9,35.1,5.6,2.6,8.6,1.3,11.6-4.4,15.7-30.2,31.8-60.2,48-90.2,11.8-22,25.3-42.8,43.5-60.6ZM906.8,508.2c3.7-.9,5.1-1.1,6.5-1.6,14.8-5.2,23.7-16.9,30.5-29.9,11.9-22.7,23-45.9,34.2-69,2-4.2,4-8.9,4-13.3,0-4.2-2.4-8.5-3.7-12.8-3.4,1.6-6.9,3-10.1,4.9-1.4.8-2.4,2.5-3.5,3.8-22.9,28.9-40.1,60.9-52.5,95.6-2.3,6.6-3.3,13.7-5.3,22.2ZM796.3,412.5c-.7.3-1.3.4-1.5.7-10.4,18.8-20.9,37.5-31.1,56.4-1,1.8-1.2,4.3-.8,6.3,1.8,9.3.4,12.1-8.8,15.3-5.6,2-7.1,5.6-5,11,3,7.7,11.7,11.6,21.1,9.3,12.9-3.1,21.6-13,23.5-27.4,1.2-8.8,2.3-17.7,2.5-26.6.4-15,.1-29.9.1-45.1Z"/>
    <path class="st0" d="M279.7,744c25.8,23,27.1,49.7,16,77.8-19.9,50.3-72.3,82.7-126.2,78.7-14-1-27.9-4.7-41.9-5.4-11.4-.5-23.1,1.1-34.5,2.7-21.7,3-42.9,2.6-63.3-6.4-11.6-5.1-13-14.1-3.7-22.4,7.8-6.9,17.3-9.4,27-7.1,18.5,4.3,36.7,9.5,54.9,15,8.2,2.5,15,.8,21.6-3.9,19.7-14.4,35.7-32.3,47.8-53.3,21.9-38.1,43.4-76.6,64.4-115.2,24.5-44.9,51.7-87.9,84.9-126.9,2.7-3.2,5.2-6.5,8.2-10.3-28.5-31.2-64.2-27.3-100.8-22.1.7,1.6,1,3,1.9,4,13,14.4,18.2,31.5,18,50.5-.7,59.7-25.6,107.8-70.4,146.3-11.4,9.8-24.8,14.3-40.1,15.4-11.4.8-23.1,3.5-33.6,7.9-42.1,17.9-67.6-9.4-73.3-44-5.5-33.5,4.2-64.2,17.8-94,21.9-47.8,58-79.9,108.3-96,13.6-4.3,27.2-5.2,41-1.8,15.6,3.9,31.3,4.3,47.1,2,31.6-4.6,61.1.8,87.9,18.6,1.9,1.2,3.8,2.3,6,3.7,4.8-3.4,9.4-7,14.4-10.2,11.1-7.2,23.1-12.2,36.4-13.7,19.7-2.1,34,5.9,43.8,22.6,5.2,8.9,10.4,17.9,15.8,27.1,28.5-15.9,58.9-19.6,90.6-15.6-13.9,2.6-28,4.5-41.7,8-13.6,3.5-26.8,8.5-40.1,12.9-4.3,1.4-5.3,3.5-3.8,8.3,3.4,11,4.5,22.1-1.1,33.1-3.9,7.5-11.2,12.4-17.6,10.8-6.7-1.6-11.4-9.7-10.5-18.4,1.3-12.3,6-23.1,15.3-31.2,3.7-3.3,4.3-6.4,2.1-10.2-5-8.7-9.6-17.9-15.7-25.9-9.5-12.4-23.6-14.9-38.2-13.6-16.9,1.5-30.6,10.1-43.5,21.4,28.2,33.6,35.7,70.4,18.3,110.9-16.8,39.2-46.3,62.6-89.7,69.6ZM131.4,754.6c23.1,1.6,41.2-5.8,55.6-19.6,39.7-37.9,62.2-83.9,60.6-139.8-.5-15.4-4.5-29.8-16.3-41-4.7-4.4-9.8-6.3-16.3-4-32.6,11.6-61.3,29.2-82.4,57.2-20.7,27.5-34.3,58-34.8,92.9-.3,17.3,4.1,34,17.9,46.4,6.4,5.8,10.5,5.6,16.7-.5,16.5-16.3,29-35,35-57.7,3.1-11.9,6-23.9,9.1-35.9.9-3.3,2.4-6.5,3.6-9.8.8.4,1.7.7,2.5,1.1-3.6,42.2-18.4,79.5-51.3,110.8ZM117.9,756.8c-1-1.2-1.6-2.3-2.5-3.1-20.6-18.8-26.9-42.6-21.7-68.9,12.4-63.2,46.4-109.9,106.8-135.5,4.2-1.8,8.4-3.5,14.1-6-3.8-1.3-6-2.3-8.3-2.9-18.5-4.5-36.3-1.8-53.7,5-49.6,19.4-80.4,56.8-99.8,104.9-10.4,25.8-14.6,52.4-8.6,79.9,3.8,17.6,13.6,30.8,31.4,36.3,15.7,4.9,29.7.8,42.3-9.7ZM340.9,575.4c-32.5,26.2-81.2,118.3-85.4,161.5,29.7-1.7,53-15.8,70-38.2,28.3-37.3,32.7-78.8,15.4-123.3ZM139.4,887.2c25.8,8.4,51.8,9.6,76.1-6.4,30-19.7,49.4-47.5,58.9-81.9,2.8-10.3,2.9-21.5,2.9-32.3,0-12-6.9-19.4-17.3-20.6-5.1-.6-8.9,1.4-10.2,6.8-9.8,40.7-29.6,75.5-62.4,101.9-14.9,12-31.8,21.6-48,32.4ZM101.7,887.4c0-.7.2-1.4.2-2.2-16.8-4.4-33.5-9.2-50.5-13-5.6-1.2-11.8,0-17.6.8-6.5,1-8.1,6.8-3.4,11.2,1.9,1.8,4.5,3.3,6.9,3.7,8.9,1.7,17.9,3.4,27,4.3,12.8,1.3,25.6,1.3,37.4-4.9ZM452.6,596c-11,7.3-17.2,16.8-18.3,29.4-.5,5.2,1.4,10.1,7,11.6,5.5,1.4,8.6-2.2,10.5-7,4.2-11,4.3-22.1.8-33.9Z"/>
    <path class="st0" d="M268.4,492.8c19.9,4,39.2,8.3,58.6,11.7,12.5,2.1,23.9-2.3,34.4-9,23.5-15,39.9-35.9,51.4-61,10.7-23.3,25.5-43.6,46.5-58.7,5.4-3.9,11.1-7.6,17.1-10.4,13-6.2,17.6-4.6,24.7,7.7,8.4-11.8,20.6-6.2,32.9-7.9-6.1,11.9-11.6,22.5-17,33.1-14.2,27.7-28.6,55.3-42.6,83.2-3,5.9-4.9,12.4-6.8,18.8-.6,2-.4,5.6.9,6.5,1.4,1,4.7.5,6.8-.4,12.2-5.5,22.4-13.7,30.4-24.3,31.7-42,52-89,61.6-140.7.4-2.1,0-4.4,0-6.1-11.1,2.1-22.1,5.4-33.2,6.1-24.3,1.5-48.7-15.6-54.4-36.7-4-15,2.7-31.8,16-39.9,18.3-11.2,41.2-9,57,5.6,13.3,12.4,20,28,22.3,45.7.2,1.2.3,2.3.7,4.5,6.3-4.3,11.9-8.2,17.5-12.1,23.7-16.7,47.1-33.8,71.1-50,37.8-25.5,79.5-39.7,125.3-40.6,24.6-.5,48.2,4.5,70.2,15.9,2.8,1.4,5.4,3.2,9.8,5.9-14-4.3-25.7-8.8-37.9-11.4-40.9-8.8-80.1-1.9-118.2,14-25.9,10.8-49.7,25.5-72.6,41.6-17.2,12.1-34.3,24.4-51.7,36.2-8.5,5.8-14,13.3-15.2,23.5-3.2,27.7-12.9,53.3-26,77.5-11.6,21.5-24.3,42.5-37.2,63.3-7.4,12-18.1,20.8-31.1,26.7-15,6.8-25,.7-25.4-15.8,0-4,0-7.9,0-13.7-2.6,3.1-4.1,5.4-6.2,7.1-8.5,7.1-16.6,14.8-25.9,20.6-10.2,6.4-19.1,2.5-22.3-9.1-1.5-5.6-1.2-11.7-1.3-17.5,0-3.9.7-7.8,1.2-14.2-3,3.2-4.5,4.8-6,6.4-18.4,20.2-39.8,35.7-67.4,40.6-16.9,3-33.5.8-49.8-4.2-2.1-.7-4.2-1.3-6.3-2.1-14-5.5-27.5-6.2-42.3-.5-20.8,8-42.8,10.1-64.9,4.6-5.7-1.4-11.3-3.8-16.3-6.9-10.6-6.6-10.8-18.4-.4-25.6,14.3-9.9,30.5-11.1,47-8.2,16.8,2.9,33.3,7,50.1,9.9,3.6.6,9.2-.5,11.3-3,12.1-13.9,23.4-28.5,35.9-44.1-13.9-.8-25.7-1.2-37.3-2.3-34.5-3.3-62.3-28.2-68.8-62.1-3.5-18,.5-34.9,10.4-50.3,22.1-34.5,54-54.3,94-61.4,25.6-4.6,50.7-1.9,75.6,5.3,13.3,3.8,13.2,2.9,22.7-7.1,7.5-7.9,16.2-15.5,25.9-20.4,16.7-8.5,31.7.2,35.3,18.7,3.5,17.5,0,34-7.1,49.8-19.8,44.2-50.4,79.1-91.9,104.1-13.5,8.1-24.2,18.4-32,32.2-9.9,17.6-24.5,31-40.8,42.6-2.4,1.7-4.8,3.5-7.2,5.3-.3.3-.4.8-1.3,2.7ZM374.4,273.6c-28-9-56-13.2-84.6-8.2-38.4,6.8-69.6,24.9-90.1,59.1-21.6,36.1-8.1,78.4,30.1,95.8,16.9,7.7,34.7,9.2,53,8.5,8.4-.3,13.4-3.1,17.3-10.9,19.5-39.4,39.5-78.6,59.5-117.8,4.6-9,9.8-17.6,14.8-26.6ZM381.9,274.1c-30.5,42.5-33.5,91.9-48.2,138.4,2-.6,2.5-.6,2.9-.8,1.1-.5,2.2-1.1,3.3-1.7,41.1-23.1,71.9-56.2,93.6-97.9,8.3-15.9,12-32.8,10.8-50.8-1.2-18.1-13.4-26.2-30.1-19-13.3,5.7-21.5,16.8-29.9,28.4,6.5,3.6,12.7,6.7,18.4,10.5,11.5,7.4,13.1,9.6,12,14-10.6-6.8-21.5-13.7-32.9-21ZM519.7,262.3c-17.6,0-31.6,9-36.1,23.2-4.6,14.6,1.8,30.6,16.1,40.6,21.3,14.9,42.8,12.4,64.3.8,1.9-1,3.6-4.7,3.5-7.1-.6-12.8-3.9-24.9-11.2-35.6-8.8-12.8-20-21.8-36.6-21.9ZM410.3,500.3c.2,5.4,2.2,7.7,7.2,6,3.7-1.2,8.2-2.1,10.6-4.8,9.3-10.5,19.6-20.7,26.5-32.7,13.1-22.9,24.2-47,35.7-70.8,2.7-5.5,4.8-11.7,5.1-17.6.2-4-2.9-8.7-5.8-11.8-.9-1-6.4,1.7-9.3,3.4-2,1.2-3.4,3.5-5,5.4-23.2,27.2-40.4,58-53.7,90.9-4.3,10.5-7.5,21.3-11.2,32ZM233.6,496.9c0-.7,0-1.5-.1-2.2-19.1-4.6-38.1-9.5-57.3-13.5-5.1-1.1-10.9-.4-16.2.7-6.8,1.4-14.9,2.3-15.8,11.7-.5,5.3,6.9,12.2,15.7,13.6,11.7,1.8,23.5,3.5,35.3,3.1,13.9-.4,26.9-5,38.3-13.4Z"/>
    <path class="st0" d="M641.8,655.5c0-7.4,5.5-12.7,12.6-12.5,5.9.2,11.8,6.8,11.6,13.2-.2,6.6-6,12-12.7,11.9-6.9-.1-11.5-5.2-11.4-12.6Z"/>
  </g>
  <g id="Gradient">
    <path class="st1" d="M778.7,804.3c-6.4,7.1-11.2,13.9-17.4,19-6.2,5-13.4,9.5-20.8,12.1-10.3,3.6-19.5-2.6-21.2-13.5-1.3-8.2-1.3-16.6-1.9-24.3-11.7,10.8-23.4,22.5-36,32.8-4.8,3.9-11.8,6.1-18.1,7.2-10.2,1.7-17.1-5.2-17-15.5,0-7.2.3-14.3.4-21.5,0-.1-.3-.3-1.1-1-5.2,5.7-10,12-15.9,17.1-7.6,6.6-15.4,13.2-24.2,17.9-19.2,10.3-29.1-.5-30.3-19.3-.3-4.9,0-9.9,0-17.2-3.3,3.8-5.4,6.2-7.5,8.7-9.5,11.2-19.1,22-32.9,28.3-17.9,8.1-31.6-.6-32.7-20.1-1-18.4,7-33.5,15.6-48.6,11.5-20.2,23-40.4,34.1-60.8,3.7-6.8,6-14.3,9-21.5-.6-.7-1.3-1.4-1.9-2.1-3.6.9-7.9.9-10.7,3-7.4,5.6-15.2,11.2-21.1,18.2-26.2,31.6-44.9,68-63.7,104.2-3.6,7-7.5,13.9-11.1,21-2.4,4.7-5.9,7-11.2,6.8-6.6-.2-13.3,0-21.2,0,5.1-9.9,9.7-18.7,15.2-29.5-12,5.2-22.7,8.3-32.3-1.6-8.3,7.4-16.2,14.5-24.3,21.4-8.5,7.2-17.8,13.6-29.6,8.5-12.4-5.4-14.3-17.1-14.3-28.7,0-7.8,1.4-15.8,3.5-23.4,10.1-36.2,29.5-66.7,57.8-91.5,7.6-6.6,16.1-11.4,26.4-12.6,11.4-1.3,18.2,4,19.1,15.3,1.6,19.2-1.8,37.5-10.1,54.8-6.8,14-14.3,27.6-21.1,41.6-1.6,3.3-3.3,9.6-2,10.6,3.1,2.3,8.1,3.5,12.1,3,11.3-1.5,19.6-8.3,25.1-17.9,8.8-15.4,17.1-31.2,25.4-46.9,8.8-16.6,17.7-33.2,26.1-50,3.5-7.1,8.3-10.5,16.4-9.8,5.6.5,11.4.1,18,.1-2,5-3.8,9.5-5.7,14.2,8.3-5.1,15.6-10.6,23.7-14.6,14-6.9,26,.5,25.4,16.1-.4,9.1-2.2,18.9-6.1,26.9-15.4,31.2-32.1,61.8-47.8,92.9-2.3,4.6-4.5,12.8-2.2,15.5,4.5,5.4,11-.1,15.9-2.6,15.4-7.9,26.9-20.5,36-34.7,9.7-15.1,18.1-31.1,26.5-47.1,9.9-19.1,19.3-38.5,28.6-57.9,3-6.3,7.1-9.6,14.4-9,6.4.5,12.8.1,20.9.1-3.5,6.8-6.4,12.6-9.4,18.4-17.2,32.6-34.5,65.1-51.4,97.8-3.8,7.4-6.9,15.4-9.2,23.4-1.1,3.8.4,8.4.8,12.6,3.9-.7,8.1-.5,11.5-2.1,23.4-11.6,38.7-31.4,50.7-53.7,19.3-35.6,37.8-71.7,56.6-107.6.6-1.1.9-2.2,1.6-3.9-5.2-3-13.8,1.7-16.7-7.9,4.1,0,7.8-.5,11.3.1,7.1,1.2,11.2-1.9,14.2-7.9,8.9-17.7,18.2-35.1,26.8-52.9,3.6-7.4,8.4-11,16.8-10.1,5.9.6,11.9.1,19.3.1-12.6,23.6-24.7,46.3-36.8,69,3.6,1.4,6.8,2.7,10.5,4.1-1.4,1.8-1.7,2.4-2,2.4-11.9-1.1-16.6,6.6-21.3,15.8-22.8,44.9-46.2,89.6-69,134.6-3.1,6.1-4.5,13-6.7,19.6.9.7,1.8,1.5,2.6,2.2,5.3-2.1,11.6-3.1,15.7-6.6,10.7-9,21.8-18.1,30.4-29,9.4-12,16.8-25.7,23.9-39.3,13.5-26.3,29-50.8,53.8-68,6.3-4.3,12.9-8.5,19.9-11.5,14.1-6,19-4.1,26.6,8.5,8.9-14,22.9-5.4,36.2-8.9-6.6,12.4-12.4,23.2-18.1,34-15.8,29.9-31.8,59.8-47.4,89.8-4.8,9.1-8.3,18.8-8.4,30.6,3.6-.9,6.5-1.3,9.1-2.3,16.5-6.6,28.5-18.7,38.6-32.7,6.8-9.4,12.5-19.6,19.1-29.1,1.7-2.5,4.9-3.9,8.3-4.9-13.6,26.6-28.7,51.8-54,68.7-2.6,1.8-5.6,3.3-8.6,4.4-12.7,4.3-26.9.8-26-16.5.3-4.8-.8-9.7-1.4-15.6ZM732,827.8c.7.7,1.3,1.4,2,2.1,4.4-1.1,9.1-1.6,13.2-3.5,12.9-5.9,21.7-16.2,28.2-28.5,15-28.7,30-57.4,44.5-86.2,2.7-5.4,4.8-11.8,4.7-17.6,0-4.4-3.6-9.2-6.8-12.8-.7-.8-7.3,1.8-9.5,4.3-33,37.3-58.3,79-73,126.8-1.6,5-2.1,10.4-3.1,15.6ZM351.1,819.1c1,9.5,3.1,11.1,11.6,8.3,11.5-3.8,19.7-11.9,27.2-20.9,5.4-6.5,8.3-13,8.5-21.9.3-18.6,8.3-33.8,24.3-44.3,2.4-1.6,5.7-3.5,6.3-5.8,3.7-14,8.1-28,5.7-42.8-1-6.4-4.6-7.9-9.9-4-3.7,2.8-7.1,6.2-10,9.8-22.8,28-41.4,58.5-55.1,91.9-3.9,9.5-5.8,19.8-8.6,29.7Z"/>
    <path class="st3" d="M1113.8,558.9c-1.4,2.4-2.6,4.9-4.2,7.3-21.8,33-53.6,49.8-91.6,55.8-45.6,7.2-88.5-4.1-130-21.7-25.2-10.7-49.9-22.7-74.7-34.5-27.5-13-56.4-20.9-86.4-25.2-6.3-.9-8.9,3.1-11.9,7-21.9,28.4-46.7,53.9-75.6,75.2-14.7,10.8-30.1,19.7-48.7,22.4-18.7,2.8-37.4-6.1-46.2-22.7-4.8-9.1-4.9-18.5-1.1-27.9,5.8-14.2,15.9-24.5,29.1-31.6,36-19.5,74.4-30.6,115.5-31.6,28-.6,27.9-.6,44.1-23.2,4.5-6.3,7.5-12.6,8.8-20.5.9-5.1,6-9.7,9.6-14.1,3-3.7,7.4-6.5,9.7-10.6,8.3-14.3,16.1-29,24-43.5.2-.4,0-.9,0-.8-8,5.6-15.5,13.9-24.7,16.6-14.3,4.2-21.3,13.6-28.4,25.4-21.1,34.9-52.7,55.6-92.4,64.1-13,2.8-26.1,2.2-38.8-2.3-31.4-11-46.2-44.2-32.8-74.6,11.9-27,32.6-43,62-47.1,16.8-2.3,36.2,7.7,42.3,21.7,6,13.8.2,33.8-12.6,45.2-10.4,9.3-22.2,15.4-36.1,17.1-8.9,1.1-16.9-.7-24.4-5,.1-.9.2-1.9.3-2.8,2.7.3,5.5,0,8.1.9,25.9,8.2,57.8-12.2,61-39.1,1.7-14-4.4-24.2-17.7-29-11.8-4.3-23.7-4.3-35.6-.2-30,10.3-48.5,38.2-45.4,68.6,2.1,20.7,19.2,38,40.6,41.5,17.4,2.9,32.9-1.4,47-11.3,24.5-17.1,41.6-40.6,57.4-66.1-1.9-1.3-3.3-2.6-4.9-3.4-30.7-14.9-35.2-45-25-71.3,4.1-10.7,11.5-20.8,19.3-29.5,16.1-17.9,36.7-30.1,58.3-40.3,24.6-11.5,49.4-22.5,74.2-33.7,2.6-1.2,5.5-1.7,8.2-2.5l1.1,1.5c-1.6,1.8-3,4-5,5.3-39,25-64,60.4-77,104.5-5.9,20.1-11.3,40.4-17.4,62.4,6.2-2.8,11.5-4.5,15.9-7.4,20.1-13.7,35.1-31.1,38.7-56.3.8-5.6.8-12.3,3.9-16.3,3.4-4.4,10.1-6.3,15.3-9.3.6,3,2.5,6.5,1.7,8.9-3.1,9.1-6.7,18.1-11,26.7-4.4,8.7-5,17-2.4,26.4,3.8,13.5,6.8,27.3,9.1,41.1,2.8,16.5.2,32.5-7.6,48.2,2.1-1.3,4.3-2.6,6.3-4,14.1-10.3,24.4-23.7,32.1-39.3,23.7-48.1,47.7-96,71.2-144.2,3.9-7.9,8.3-12.4,17.5-10.7,3.8.7,7.7.1,12.9.1-4.7,9.4-8.6,17.8-12.9,26-25.2,49-50.6,97.9-75.6,147-4.7,9.2-8,19.1-11.6,28.8-.8,2.3-.1,5.1-.1,7.6,2.5-.6,5.7-.4,7.5-1.8,8.9-6.9,19-13.1,25.9-21.7,9-11.3,16.3-24.2,22.8-37.1,10.6-20.9,21.8-41.2,40.4-56.2,6.1-4.9,12.9-9.3,19.8-13.1,11.4-6.2,15.2-5,22.7,6.2,7.5-10.7,18.4-5,29-6.7-2.3,5-4,9-5.9,12.9-15.5,30.7-31.2,61.2-46.5,92-3.9,7.8-8,15.8-7.2,26.4,3.4-.9,6.2-1.3,8.7-2.4,12.7-5.6,21.7-15.5,29.5-26.5,5.6-7.9,10.1-16.4,15.4-24.5,1.5-2.3,4.1-4,7.2-5-8.4,19.5-18.9,37.3-34.9,51.1-4.8,4.1-10.2,7.8-15.9,10.5-11.7,5.5-19.9.7-21.5-12.2-.5-4.3,0-8.6,0-14.7-5.9,6.3-10.2,11.4-15.1,15.8-4,3.7-8.2,7.3-13,9.7-10.3,5.2-19.5.4-21.5-11.1-1.1-6.5-1.2-13.1-1.9-20.8-5.4,6.5-10,12.4-15,18-7,7.9-15.3,14-25.9,16.3-9.6,2.1-15.7-1.6-16.7-11.3-.6-6.3-.1-12.7-.1-20.5-5.4,4.8-9.9,8.8-14.4,12.8-14.7,12.9-31.2,21.7-51.2,22.5-10.7.4-20.8-1-28.6-10.5-4.9,8.3-9.3,15.9-14.3,24.4,56.7,4.3,104.5,32,154.3,53.5,26.9,11.6,53.7,23.7,83.1,27.8,46.5,6.5,90,.4,126.5-32,7.5-6.6,13.6-14.8,20.4-22.2.4.2.8.5,1.2.7ZM708.3,540.3c-13.9,0-26.5-.9-38.9.2-33,2.9-65,10-94.1,26.5-8.8,5-17.4,11.9-23.3,20-15.3,21-4.3,46.5,21.3,51.5,16.3,3.2,31-1.5,44-11,12.4-9,24.3-18.7,36-28.6,20.3-17.1,37.9-36.8,54.9-58.6ZM814,278.9c-1.1.4-2.1.8-3.2,1.3-21.5,10.5-43.7,19.9-64.3,31.9-15,8.7-29,19.8-41.6,31.8-15.4,14.6-22.2,33.6-19.9,55.2,1.8,16.8,10.8,28.1,25.9,35.1,5.6,2.6,8.6,1.3,11.6-4.4,15.7-30.2,31.8-60.2,48-90.2,11.8-22,25.3-42.8,43.5-60.6ZM906.8,508.2c3.7-.9,5.1-1.1,6.5-1.6,14.8-5.2,23.7-16.9,30.5-29.9,11.9-22.7,23-45.9,34.2-69,2-4.2,4-8.9,4-13.3,0-4.2-2.4-8.5-3.7-12.8-3.4,1.6-6.9,3-10.1,4.9-1.4.8-2.4,2.5-3.5,3.8-22.9,28.9-40.1,60.9-52.5,95.6-2.3,6.6-3.3,13.7-5.3,22.2ZM796.3,412.5c-.7.3-1.3.4-1.5.7-10.4,18.8-20.9,37.5-31.1,56.4-1,1.8-1.2,4.3-.8,6.3,1.8,9.3.4,12.1-8.8,15.3-5.6,2-7.1,5.6-5,11,3,7.7,11.7,11.6,21.1,9.3,12.9-3.1,21.6-13,23.5-27.4,1.2-8.8,2.3-17.7,2.5-26.6.4-15,.1-29.9.1-45.1Z"/>
    <path class="st5" d="M279.7,744c25.8,23,27.1,49.7,16,77.8-19.9,50.3-72.3,82.7-126.2,78.7-14-1-27.9-4.7-41.9-5.4-11.4-.5-23.1,1.1-34.5,2.7-21.7,3-42.9,2.6-63.3-6.4-11.6-5.1-13-14.1-3.7-22.4,7.8-6.9,17.3-9.4,27-7.1,18.5,4.3,36.7,9.5,54.9,15,8.2,2.5,15,.8,21.6-3.9,19.7-14.4,35.7-32.3,47.8-53.3,21.9-38.1,43.4-76.6,64.4-115.2,24.5-44.9,51.7-87.9,84.9-126.9,2.7-3.2,5.2-6.5,8.2-10.3-28.5-31.2-64.2-27.3-100.8-22.1.7,1.6,1,3,1.9,4,13,14.4,18.2,31.5,18,50.5-.7,59.7-25.6,107.8-70.4,146.3-11.4,9.8-24.8,14.3-40.1,15.4-11.4.8-23.1,3.5-33.6,7.9-42.1,17.9-67.6-9.4-73.3-44-5.5-33.5,4.2-64.2,17.8-94,21.9-47.8,58-79.9,108.3-96,13.6-4.3,27.2-5.2,41-1.8,15.6,3.9,31.3,4.3,47.1,2,31.6-4.6,61.1.8,87.9,18.6,1.9,1.2,3.8,2.3,6,3.7,4.8-3.4,9.4-7,14.4-10.2,11.1-7.2,23.1-12.2,36.4-13.7,19.7-2.1,34,5.9,43.8,22.6,5.2,8.9,10.4,17.9,15.8,27.1,28.5-15.9,58.9-19.6,90.6-15.6-13.9,2.6-28,4.5-41.7,8-13.6,3.5-26.8,8.5-40.1,12.9-4.3,1.4-5.3,3.5-3.8,8.3,3.4,11,4.5,22.1-1.1,33.1-3.9,7.5-11.2,12.4-17.6,10.8-6.7-1.6-11.4-9.7-10.5-18.4,1.3-12.3,6-23.1,15.3-31.2,3.7-3.3,4.3-6.4,2.1-10.2-5-8.7-9.6-17.9-15.7-25.9-9.5-12.4-23.6-14.9-38.2-13.6-16.9,1.5-30.6,10.1-43.5,21.4,28.2,33.6,35.7,70.4,18.3,110.9-16.8,39.2-46.3,62.6-89.7,69.6ZM131.4,754.6c23.1,1.6,41.2-5.8,55.6-19.6,39.7-37.9,62.2-83.9,60.6-139.8-.5-15.4-4.5-29.8-16.3-41-4.7-4.4-9.8-6.3-16.3-4-32.6,11.6-61.3,29.2-82.4,57.2-20.7,27.5-34.3,58-34.8,92.9-.3,17.3,4.1,34,17.9,46.4,6.4,5.8,10.5,5.6,16.7-.5,16.5-16.3,29-35,35-57.7,3.1-11.9,6-23.9,9.1-35.9.9-3.3,2.4-6.5,3.6-9.8.8.4,1.7.7,2.5,1.1-3.6,42.2-18.4,79.5-51.3,110.8ZM117.9,756.8c-1-1.2-1.6-2.3-2.5-3.1-20.6-18.8-26.9-42.6-21.7-68.9,12.4-63.2,46.4-109.9,106.8-135.5,4.2-1.8,8.4-3.5,14.1-6-3.8-1.3-6-2.3-8.3-2.9-18.5-4.5-36.3-1.8-53.7,5-49.6,19.4-80.4,56.8-99.8,104.9-10.4,25.8-14.6,52.4-8.6,79.9,3.8,17.6,13.6,30.8,31.4,36.3,15.7,4.9,29.7.8,42.3-9.7ZM340.9,575.4c-32.5,26.2-81.2,118.3-85.4,161.5,29.7-1.7,53-15.8,70-38.2,28.3-37.3,32.7-78.8,15.4-123.3ZM139.4,887.2c25.8,8.4,51.8,9.6,76.1-6.4,30-19.7,49.4-47.5,58.9-81.9,2.8-10.3,2.9-21.5,2.9-32.3,0-12-6.9-19.4-17.3-20.6-5.1-.6-8.9,1.4-10.2,6.8-9.8,40.7-29.6,75.5-62.4,101.9-14.9,12-31.8,21.6-48,32.4ZM101.7,887.4c0-.7.2-1.4.2-2.2-16.8-4.4-33.5-9.2-50.5-13-5.6-1.2-11.8,0-17.6.8-6.5,1-8.1,6.8-3.4,11.2,1.9,1.8,4.5,3.3,6.9,3.7,8.9,1.7,17.9,3.4,27,4.3,12.8,1.3,25.6,1.3,37.4-4.9ZM452.6,596c-11,7.3-17.2,16.8-18.3,29.4-.5,5.2,1.4,10.1,7,11.6,5.5,1.4,8.6-2.2,10.5-7,4.2-11,4.3-22.1.8-33.9Z"/>
    <path class="st4" d="M268.4,492.8c19.9,4,39.2,8.3,58.6,11.7,12.5,2.1,23.9-2.3,34.4-9,23.5-15,39.9-35.9,51.4-61,10.7-23.3,25.5-43.6,46.5-58.7,5.4-3.9,11.1-7.6,17.1-10.4,13-6.2,17.6-4.6,24.7,7.7,8.4-11.8,20.6-6.2,32.9-7.9-6.1,11.9-11.6,22.5-17,33.1-14.2,27.7-28.6,55.3-42.6,83.2-3,5.9-4.9,12.4-6.8,18.8-.6,2-.4,5.6.9,6.5,1.4,1,4.7.5,6.8-.4,12.2-5.5,22.4-13.7,30.4-24.3,31.7-42,52-89,61.6-140.7.4-2.1,0-4.4,0-6.1-11.1,2.1-22.1,5.4-33.2,6.1-24.3,1.5-48.7-15.6-54.4-36.7-4-15,2.7-31.8,16-39.9,18.3-11.2,41.2-9,57,5.6,13.3,12.4,20,28,22.3,45.7.2,1.2.3,2.3.7,4.5,6.3-4.3,11.9-8.2,17.5-12.1,23.7-16.7,47.1-33.8,71.1-50,37.8-25.5,79.5-39.7,125.3-40.6,24.6-.5,48.2,4.5,70.2,15.9,2.8,1.4,5.4,3.2,9.8,5.9-14-4.3-25.7-8.8-37.9-11.4-40.9-8.8-80.1-1.9-118.2,14-25.9,10.8-49.7,25.5-72.6,41.6-17.2,12.1-34.3,24.4-51.7,36.2-8.5,5.8-14,13.3-15.2,23.5-3.2,27.7-12.9,53.3-26,77.5-11.6,21.5-24.3,42.5-37.2,63.3-7.4,12-18.1,20.8-31.1,26.7-15,6.8-25,.7-25.4-15.8,0-4,0-7.9,0-13.7-2.6,3.1-4.1,5.4-6.2,7.1-8.5,7.1-16.6,14.8-25.9,20.6-10.2,6.4-19.1,2.5-22.3-9.1-1.5-5.6-1.2-11.7-1.3-17.5,0-3.9.7-7.8,1.2-14.2-3,3.2-4.5,4.8-6,6.4-18.4,20.2-39.8,35.7-67.4,40.6-16.9,3-33.5.8-49.8-4.2-2.1-.7-4.2-1.3-6.3-2.1-14-5.5-27.5-6.2-42.3-.5-20.8,8-42.8,10.1-64.9,4.6-5.7-1.4-11.3-3.8-16.3-6.9-10.6-6.6-10.8-18.4-.4-25.6,14.3-9.9,30.5-11.1,47-8.2,16.8,2.9,33.3,7,50.1,9.9,3.6.6,9.2-.5,11.3-3,12.1-13.9,23.4-28.5,35.9-44.1-13.9-.8-25.7-1.2-37.3-2.3-34.5-3.3-62.3-28.2-68.8-62.1-3.5-18,.5-34.9,10.4-50.3,22.1-34.5,54-54.3,94-61.4,25.6-4.6,50.7-1.9,75.6,5.3,13.3,3.8,13.2,2.9,22.7-7.1,7.5-7.9,16.2-15.5,25.9-20.4,16.7-8.5,31.7.2,35.3,18.7,3.5,17.5,0,34-7.1,49.8-19.8,44.2-50.4,79.1-91.9,104.1-13.5,8.1-24.2,18.4-32,32.2-9.9,17.6-24.5,31-40.8,42.6-2.4,1.7-4.8,3.5-7.2,5.3-.3.3-.4.8-1.3,2.7ZM374.4,273.6c-28-9-56-13.2-84.6-8.2-38.4,6.8-69.6,24.9-90.1,59.1-21.6,36.1-8.1,78.4,30.1,95.8,16.9,7.7,34.7,9.2,53,8.5,8.4-.3,13.4-3.1,17.3-10.9,19.5-39.4,39.5-78.6,59.5-117.8,4.6-9,9.8-17.6,14.8-26.6ZM381.9,274.1c-30.5,42.5-33.5,91.9-48.2,138.4,2-.6,2.5-.6,2.9-.8,1.1-.5,2.2-1.1,3.3-1.7,41.1-23.1,71.9-56.2,93.6-97.9,8.3-15.9,12-32.8,10.8-50.8-1.2-18.1-13.4-26.2-30.1-19-13.3,5.7-21.5,16.8-29.9,28.4,6.5,3.6,12.7,6.7,18.4,10.5,11.5,7.4,13.1,9.6,12,14-10.6-6.8-21.5-13.7-32.9-21ZM519.7,262.3c-17.6,0-31.6,9-36.1,23.2-4.6,14.6,1.8,30.6,16.1,40.6,21.3,14.9,42.8,12.4,64.3.8,1.9-1,3.6-4.7,3.5-7.1-.6-12.8-3.9-24.9-11.2-35.6-8.8-12.8-20-21.8-36.6-21.9ZM410.3,500.3c.2,5.4,2.2,7.7,7.2,6,3.7-1.2,8.2-2.1,10.6-4.8,9.3-10.5,19.6-20.7,26.5-32.7,13.1-22.9,24.2-47,35.7-70.8,2.7-5.5,4.8-11.7,5.1-17.6.2-4-2.9-8.7-5.8-11.8-.9-1-6.4,1.7-9.3,3.4-2,1.2-3.4,3.5-5,5.4-23.2,27.2-40.4,58-53.7,90.9-4.3,10.5-7.5,21.3-11.2,32ZM233.6,496.9c0-.7,0-1.5-.1-2.2-19.1-4.6-38.1-9.5-57.3-13.5-5.1-1.1-10.9-.4-16.2.7-6.8,1.4-14.9,2.3-15.8,11.7-.5,5.3,6.9,12.2,15.7,13.6,11.7,1.8,23.5,3.5,35.3,3.1,13.9-.4,26.9-5,38.3-13.4Z"/>
    <path class="st6" d="M641.8,655.5c0-7.4,5.5-12.7,12.6-12.5,5.9.2,11.8,6.8,11.6,13.2-.2,6.6-6,12-12.7,11.9-6.9-.1-11.5-5.2-11.4-12.6Z"/>
  </g>
</svg>